<?xml version="1.0" encoding="UTF-8"?>
<svg id="Calque_1" data-name="Calque 1" xmlns="http://www.w3.org/2000/svg" viewBox="0 0 425.2 425.2">
  <defs>
    <style>
      .cls-1 {
        fill: #000000;
      }
    </style>
  </defs>
  <path class="cls-1" d="M50.04,0h126.25c58.43,0,107.71,19.41,147.84,58.22,41.42,40.13,62.14,90.71,62.14,151.76s-21.81,112.52-65.41,154.38c-41.87,40.56-92.02,60.84-150.46,60.84H50.04c-7.42,0-11.12-3.7-11.12-11.12V11.12c0-7.41,3.7-11.12,11.12-11.12Zm35.32,37.29V378.1c0,4.8,1.52,9.6,4.58,14.39,3.04,4.8,6.76,7.19,11.12,7.19h69.99c45.35,0,83.51-17.55,114.48-52.66,30.96-35.1,46.45-81.22,46.45-138.35s-15.93-99.21-47.75-134.1c-30.53-32.71-67.38-49.06-110.55-49.06H97.14c-7.85,0-11.77,3.92-11.77,11.77Z"/>
  <path class="cls-1" d="M175.78,387.97c0,5.23,2.39,8.28,7.19,9.15,.87,.44,5.45,.65,13.74,.65h126.9c10.03,0,15.04,2.61,15.04,7.84v11.1c0,5.23-6.11,7.84-18.32,7.84H140.45c-7.42,0-11.12-3.69-11.12-11.1V16.22c0-7.4,3.7-11.1,11.12-11.1h24.2c7.41,0,11.12,3.7,11.12,11.1V387.97Z"/>
  <rect class="cls-1" x="363.93" y="403.14" width="26.83" height="15.98" rx="1.77" ry="1.77" transform="translate(-33.79 788.48) rotate(-90)"/>
  <rect class="cls-1" x="340.59" y="403.14" width="26.83" height="15.98" rx="1.77" ry="1.77" transform="translate(-57.12 765.14) rotate(-90)"/>
</svg>